<svg width="105" height="72" viewBox="0 0 105 72" fill="none" xmlns="http://www.w3.org/2000/svg">
<g clip-path="url(#clip0)">
<path d="M71.5762 15.6358C71.1487 9.92564 68.8107 5.62232 65.5627 3.01548C60.5352 -1.00524 54.08 -1.00524 49.4734 3.01548C44.8664 7.0359 42.0044 0.00184633 42.0044 0.00184633C39.7562 4.78094 39.3494 7.98074 39.9286 10.1255L39.8804 10.2635C39.0417 9.97111 38.2654 9.52433 37.5909 8.94632C37.1908 8.60147 35.4324 6.89125 35.6598 6.20857C31.4599 18.622 39.1562 26.2078 39.1562 26.2078C38.3908 18.6287 42.1494 15.3529 44.0528 14.2082C44.1147 14.1737 44.17 14.1392 44.2252 14.1118C44.2804 14.084 44.3287 14.0495 44.3769 14.022C46.0575 14.3523 47.7851 14.373 49.4734 14.084C67.5695 9.04978 70.4037 26.2078 70.4037 26.2078C71.3949 22.7764 71.7907 19.2006 71.5762 15.6358Z" fill="black"/>
<path d="M65.5626 3.01489C62.4779 0.403782 58.3296 -0.5734 54.4041 0.387302C52.5779 0.865822 50.8891 1.76579 49.4733 3.01489C44.8596 7.04233 42.0044 0.000946045 42.0044 0.000946045C39.7562 4.78035 39.3493 7.98014 39.9286 10.1249L39.8804 10.2629C41.1218 10.6816 42.439 10.829 43.7424 10.6975C43.7906 10.6904 43.8458 10.6904 43.8941 10.6834C46.8665 10.4283 49.9491 9.11815 52.4317 8.04911C53.1077 7.80772 53.7696 7.60782 54.4041 7.44913C63.9281 5.00099 68.9694 10.8558 71.4245 15.649L71.5762 15.6352C71.1486 9.92565 68.8107 5.62233 65.5626 3.01489Z" fill="#464746"/>
<path d="M71.5762 15.6353L71.4245 15.649C68.9694 10.8559 63.9281 5.00103 54.4041 7.44917C53.7697 7.60786 53.1077 7.80775 52.4318 8.04915C49.9491 9.11819 46.8665 10.4283 43.8941 10.6835C43.8459 10.6905 43.7906 10.6905 43.7424 10.6975C42.439 10.829 41.1224 10.6816 39.8804 10.2629C39.0417 9.97055 38.2654 9.52347 37.5909 8.94576C37.1908 8.60091 35.4324 6.89069 35.6598 6.2077C31.4599 18.6215 39.1562 26.2073 39.1562 26.2073C38.3908 18.6282 42.1494 15.3524 44.0528 14.2077C44.1147 14.1732 44.17 14.1457 44.2252 14.1112C44.2804 14.0767 44.3287 14.049 44.3769 14.0215C46.0575 14.3517 47.7851 14.3724 49.4734 14.0834C51.0823 13.6229 52.7345 13.3297 54.4041 13.2076C68.1005 12.2768 70.4037 26.2073 70.4037 26.2073C71.3949 22.7765 71.7907 19.2007 71.5762 15.6353Z" fill="#333533"/>
<path d="M54.749 37.5181C61.0247 43.5667 68.197 36.6575 68.197 36.6559C67.9812 36.8671 66.6204 36.518 66.3397 36.4545C65.6976 36.3147 65.0839 36.0685 64.5239 35.7248C63.5467 35.0333 62.784 34.0802 62.3226 32.9755C61.7949 31.8988 61.2261 30.408 60.013 29.8837C57.7593 28.9099 55.2592 31.2369 54.749 33.1989C54.8808 32.6932 53.9595 31.579 53.6677 31.2479C52.361 29.7632 49.8002 28.9721 48.4065 30.7651C47.9395 31.4691 47.5492 32.2211 47.241 33.0078C46.1961 35.3272 43.8416 36.7731 41.301 36.6559C41.301 36.6559 48.4733 43.5667 54.749 37.5181Z" fill="#333533"/>
</g>
<path d="M1.736 63.836C2.05333 64.4053 2.41267 64.8627 2.814 65.208C3.22467 65.5533 3.70533 65.726 4.256 65.726C4.71333 65.726 5.07733 65.6093 5.348 65.376C5.628 65.1333 5.768 64.816 5.768 64.424C5.768 64.06 5.67933 63.7707 5.502 63.556C5.32467 63.332 5.07733 63.1453 4.76 62.996C4.452 62.8373 4.09267 62.6833 3.682 62.534C3.43933 62.45 3.16867 62.338 2.87 62.198C2.57133 62.058 2.28667 61.8807 2.016 61.666C1.74533 61.442 1.52133 61.1667 1.344 60.84C1.16667 60.5133 1.078 60.1213 1.078 59.664C1.078 59.1413 1.21333 58.684 1.484 58.292C1.75467 57.8907 2.11867 57.5827 2.576 57.368C3.04267 57.144 3.57 57.032 4.158 57.032C4.73667 57.032 5.24067 57.1347 5.67 57.34C6.09933 57.5453 6.45867 57.8067 6.748 58.124C7.04667 58.4413 7.28 58.7727 7.448 59.118L6.104 59.874C5.89867 59.5193 5.642 59.202 5.334 58.922C5.026 58.642 4.62467 58.502 4.13 58.502C3.67267 58.502 3.33667 58.6093 3.122 58.824C2.90733 59.0387 2.8 59.2813 2.8 59.552C2.8 59.9347 2.97267 60.2613 3.318 60.532C3.66333 60.8027 4.23267 61.0733 5.026 61.344C5.418 61.4747 5.80533 61.6613 6.188 61.904C6.57067 62.1467 6.888 62.464 7.14 62.856C7.392 63.2387 7.518 63.7147 7.518 64.284C7.518 64.8907 7.35933 65.4133 7.042 65.852C6.734 66.2907 6.33267 66.6267 5.838 66.86C5.34333 67.0933 4.816 67.21 4.256 67.21C3.68667 67.21 3.15467 67.098 2.66 66.874C2.17467 66.6407 1.74533 66.3373 1.372 65.964C1.008 65.5813 0.718667 65.1613 0.504 64.704L1.736 63.836ZM12.4758 62.184C12.3358 62.072 12.2051 61.988 12.0838 61.932C11.9624 61.8667 11.8084 61.834 11.6218 61.834C11.2484 61.834 10.9778 61.974 10.8098 62.254C10.6418 62.534 10.5578 62.9073 10.5578 63.374V67H9.05975V60.56H10.5578V61.344C10.7444 61.0547 10.9684 60.8307 11.2298 60.672C11.4911 60.504 11.7571 60.42 12.0278 60.42C12.2611 60.42 12.4804 60.4573 12.6858 60.532C12.8911 60.6067 13.0684 60.728 13.2178 60.896L12.4758 62.184ZM13.6174 66.286C13.6174 66.0153 13.7107 65.7867 13.8974 65.6C14.0841 65.404 14.3174 65.306 14.5974 65.306C14.8774 65.306 15.1107 65.404 15.2974 65.6C15.4934 65.7867 15.5914 66.0153 15.5914 66.286C15.5914 66.5473 15.4934 66.776 15.2974 66.972C15.1107 67.168 14.8774 67.266 14.5974 67.266C14.3174 67.266 14.0841 67.168 13.8974 66.972C13.7107 66.776 13.6174 66.5473 13.6174 66.286ZM28.6873 64.172C28.6873 64.816 28.5333 65.348 28.2253 65.768C27.9266 66.188 27.5113 66.5007 26.9793 66.706C26.4566 66.902 25.85 67 25.1593 67H22.0373V57.2H24.9913C25.9246 57.2 26.6806 57.4053 27.2593 57.816C27.838 58.2173 28.1273 58.8333 28.1273 59.664C28.1273 60.1587 27.992 60.5787 27.7213 60.924C27.4506 61.26 27.0773 61.5167 26.6013 61.694C27.208 61.8527 27.7073 62.1373 28.0993 62.548C28.4913 62.9493 28.6873 63.4907 28.6873 64.172ZM24.8793 58.558H23.6893V61.134H24.8793C25.3366 61.134 25.71 61.022 25.9993 60.798C26.2886 60.5647 26.4333 60.2473 26.4333 59.846C26.4333 59.4353 26.2886 59.118 25.9993 58.894C25.71 58.67 25.3366 58.558 24.8793 58.558ZM23.6893 65.642H25.0613C25.6213 65.642 26.0833 65.5067 26.4473 65.236C26.8113 64.956 26.9933 64.5453 26.9933 64.004C26.9933 63.472 26.8113 63.0753 26.4473 62.814C26.0833 62.5527 25.6213 62.422 25.0613 62.422H23.6893V65.642ZM30.7818 62.24L30.1658 61.176C30.4645 60.9987 30.8425 60.826 31.2998 60.658C31.7572 60.49 32.2845 60.406 32.8818 60.406C33.6752 60.406 34.3238 60.5833 34.8278 60.938C35.3412 61.2833 35.5978 61.7733 35.5978 62.408V67H34.1138V66.118C33.9085 66.4633 33.6052 66.72 33.2038 66.888C32.8025 67.056 32.3965 67.14 31.9858 67.14C31.5845 67.14 31.2112 67.0607 30.8658 66.902C30.5205 66.7433 30.2452 66.51 30.0398 66.202C29.8345 65.894 29.7318 65.5207 29.7318 65.082C29.7318 64.4567 29.9512 63.962 30.3898 63.598C30.8378 63.2247 31.4585 63.038 32.2518 63.038C32.6718 63.038 33.0358 63.0847 33.3438 63.178C33.6518 63.2713 33.9085 63.374 34.1138 63.486V62.702C34.1138 62.31 33.9832 62.0347 33.7218 61.876C33.4698 61.7173 33.1432 61.638 32.7418 61.638C32.2845 61.638 31.8785 61.7127 31.5238 61.862C31.1692 62.0113 30.9218 62.1373 30.7818 62.24ZM31.2578 64.998C31.2578 65.3153 31.3698 65.5627 31.5938 65.74C31.8272 65.9173 32.1165 66.006 32.4618 66.006C32.9098 66.006 33.2972 65.8707 33.6238 65.6C33.9505 65.32 34.1138 64.9373 34.1138 64.452V64.354C33.6658 64.1393 33.1665 64.032 32.6158 64.032C32.1398 64.032 31.7945 64.1207 31.5798 64.298C31.3652 64.466 31.2578 64.6993 31.2578 64.998ZM40.7765 62.184C40.6365 62.072 40.5059 61.988 40.3845 61.932C40.2632 61.8667 40.1092 61.834 39.9225 61.834C39.5492 61.834 39.2785 61.974 39.1105 62.254C38.9425 62.534 38.8585 62.9073 38.8585 63.374V67H37.3605V60.56H38.8585V61.344C39.0452 61.0547 39.2692 60.8307 39.5305 60.672C39.7919 60.504 40.0579 60.42 40.3285 60.42C40.5619 60.42 40.7812 60.4573 40.9865 60.532C41.1919 60.6067 41.3692 60.728 41.5185 60.896L40.7765 62.184ZM49.3462 63.78C49.3462 64.48 49.2015 65.082 48.9122 65.586C48.6228 66.09 48.2402 66.4773 47.7642 66.748C47.2882 67.0093 46.7702 67.14 46.2102 67.14C45.2488 67.14 44.5162 66.7387 44.0122 65.936V67H42.4862V56.08H44.0122V61.624C44.5162 60.8213 45.2488 60.42 46.2102 60.42C46.7702 60.42 47.2882 60.5553 47.7642 60.826C48.2402 61.0873 48.6228 61.47 48.9122 61.974C49.2015 62.4687 49.3462 63.0707 49.3462 63.78ZM47.7782 63.78C47.7782 63.136 47.5868 62.6367 47.2042 62.282C46.8215 61.918 46.3688 61.736 45.8462 61.736C45.5568 61.736 45.2722 61.8153 44.9922 61.974C44.7122 62.1327 44.4788 62.366 44.2922 62.674C44.1055 62.9727 44.0122 63.3413 44.0122 63.78C44.0122 64.2187 44.1055 64.592 44.2922 64.9C44.4788 65.1987 44.7122 65.4273 44.9922 65.586C45.2722 65.7447 45.5568 65.824 45.8462 65.824C46.3688 65.824 46.8215 65.6467 47.2042 65.292C47.5868 64.928 47.7782 64.424 47.7782 63.78ZM53.5726 67.14C52.91 67.14 52.3313 67 51.8366 66.72C51.342 66.44 50.9593 66.048 50.6886 65.544C50.418 65.04 50.2826 64.452 50.2826 63.78C50.2826 63.0987 50.418 62.5107 50.6886 62.016C50.9686 61.512 51.3606 61.12 51.8646 60.84C52.3686 60.56 52.9613 60.42 53.6426 60.42C54.66 60.42 55.4486 60.714 56.0086 61.302C56.578 61.8807 56.8626 62.6833 56.8626 63.71C56.8626 63.794 56.858 63.878 56.8486 63.962C56.8486 64.0367 56.8486 64.0927 56.8486 64.13H51.8366C51.8926 64.69 52.0746 65.124 52.3826 65.432C52.7 65.74 53.12 65.894 53.6426 65.894C54.464 65.894 55.08 65.5533 55.4906 64.872L56.8066 65.39C56.1346 66.5567 55.0566 67.14 53.5726 67.14ZM53.6286 61.568C52.6486 61.568 52.0653 62.072 51.8786 63.08H55.2106C55.1826 62.6227 55.024 62.2587 54.7346 61.988C54.4453 61.708 54.0766 61.568 53.6286 61.568ZM58.2498 57.998C58.2498 57.7367 58.3432 57.5173 58.5298 57.34C58.7165 57.1627 58.9405 57.074 59.2018 57.074C59.4725 57.074 59.6965 57.1627 59.8738 57.34C60.0605 57.5173 60.1538 57.7367 60.1538 57.998C60.1538 58.2593 60.0605 58.4787 59.8738 58.656C59.6965 58.8333 59.4725 58.922 59.2018 58.922C58.9405 58.922 58.7165 58.8333 58.5298 58.656C58.3432 58.4787 58.2498 58.2593 58.2498 57.998ZM58.4598 60.56H59.9438V67H58.4598V60.56ZM65.4406 62.184C65.3006 62.072 65.1699 61.988 65.0486 61.932C64.9273 61.8667 64.7733 61.834 64.5866 61.834C64.2133 61.834 63.9426 61.974 63.7746 62.254C63.6066 62.534 63.5226 62.9073 63.5226 63.374V67H62.0246V60.56H63.5226V61.344C63.7093 61.0547 63.9333 60.8307 64.1946 60.672C64.4559 60.504 64.7219 60.42 64.9926 60.42C65.2259 60.42 65.4453 60.4573 65.6506 60.532C65.8559 60.6067 66.0333 60.728 66.1826 60.896L65.4406 62.184ZM66.5112 63.78C66.5112 63.1173 66.6605 62.534 66.9592 62.03C67.2672 61.526 67.6825 61.134 68.2052 60.854C68.7372 60.5647 69.3298 60.42 69.9832 60.42C70.6458 60.42 71.2385 60.5647 71.7612 60.854C72.2838 61.134 72.6945 61.526 72.9932 62.03C73.3012 62.534 73.4552 63.1173 73.4552 63.78C73.4552 64.4333 73.3012 65.0167 72.9932 65.53C72.6945 66.034 72.2838 66.4307 71.7612 66.72C71.2385 67 70.6458 67.14 69.9832 67.14C69.3298 67.14 68.7372 67 68.2052 66.72C67.6825 66.4307 67.2672 66.034 66.9592 65.53C66.6605 65.0167 66.5112 64.4333 66.5112 63.78ZM68.0652 63.78C68.0652 64.3773 68.2472 64.8673 68.6112 65.25C68.9845 65.6233 69.4418 65.81 69.9832 65.81C70.5338 65.81 70.9912 65.6233 71.3552 65.25C71.7192 64.8673 71.9012 64.3773 71.9012 63.78C71.9012 63.1733 71.7192 62.6833 71.3552 62.31C70.9912 61.9367 70.5338 61.75 69.9832 61.75C69.4418 61.75 68.9845 61.9367 68.6112 62.31C68.2472 62.6833 68.0652 63.1733 68.0652 63.78ZM85.8771 67L84.7571 64.48H81.1451L80.0251 67H78.1631L82.9511 56.654L87.7391 67H85.8771ZM82.9511 59.972L81.6211 63.08H84.2811L82.9511 59.972ZM90.2231 70.08H88.6971V60.56H90.2231V61.638C90.4564 61.246 90.7598 60.9427 91.1331 60.728C91.5064 60.504 91.9358 60.392 92.4211 60.392C92.9811 60.392 93.4991 60.5273 93.9751 60.798C94.4511 61.0593 94.8338 61.442 95.1231 61.946C95.4124 62.45 95.5571 63.0613 95.5571 63.78C95.5571 64.4987 95.4124 65.11 95.1231 65.614C94.8338 66.118 94.4511 66.5053 93.9751 66.776C93.4991 67.0373 92.9811 67.168 92.4211 67.168C91.9358 67.168 91.5064 67.0607 91.1331 66.846C90.7598 66.622 90.4564 66.314 90.2231 65.922V70.08ZM93.9891 63.78C93.9891 63.136 93.7978 62.6413 93.4151 62.296C93.0324 61.9413 92.5798 61.764 92.0571 61.764C91.7678 61.764 91.4831 61.8433 91.2031 62.002C90.9231 62.1513 90.6898 62.3753 90.5031 62.674C90.3164 62.9727 90.2231 63.3413 90.2231 63.78C90.2231 64.2187 90.3164 64.5873 90.5031 64.886C90.6898 65.1847 90.9231 65.4133 91.2031 65.572C91.4831 65.7213 91.7678 65.796 92.0571 65.796C92.5798 65.796 93.0324 65.6233 93.4151 65.278C93.7978 64.9233 93.9891 64.424 93.9891 63.78ZM98.4536 70.08H96.9276V60.56H98.4536V61.638C98.6869 61.246 98.9902 60.9427 99.3636 60.728C99.7369 60.504 100.166 60.392 100.652 60.392C101.212 60.392 101.73 60.5273 102.206 60.798C102.682 61.0593 103.064 61.442 103.354 61.946C103.643 62.45 103.788 63.0613 103.788 63.78C103.788 64.4987 103.643 65.11 103.354 65.614C103.064 66.118 102.682 66.5053 102.206 66.776C101.73 67.0373 101.212 67.168 100.652 67.168C100.166 67.168 99.7369 67.0607 99.3636 66.846C98.9902 66.622 98.6869 66.314 98.4536 65.922V70.08ZM102.22 63.78C102.22 63.136 102.028 62.6413 101.646 62.296C101.263 61.9413 100.81 61.764 100.288 61.764C99.9982 61.764 99.7136 61.8433 99.4336 62.002C99.1536 62.1513 98.9202 62.3753 98.7336 62.674C98.5469 62.9727 98.4536 63.3413 98.4536 63.78C98.4536 64.2187 98.5469 64.5873 98.7336 64.886C98.9202 65.1847 99.1536 65.4133 99.4336 65.572C99.7136 65.7213 99.9982 65.796 100.288 65.796C100.81 65.796 101.263 65.6233 101.646 65.278C102.028 64.9233 102.22 64.424 102.22 63.78Z" fill="#333533"/>
<defs>
<clipPath id="clip0">
<rect width="40" height="40" fill="white" transform="translate(33)"/>
</clipPath>
</defs>
</svg>
